<?xml version="1.0" encoding="UTF-8" standalone="no"?>
<!-- Created with Inkscape (http://www.inkscape.org/) -->

<svg
   width="119.66876mm"
   height="186.45483mm"
   viewBox="0 0 119.66876 186.45483"
   version="1.1"
   id="svg1"
   xml:space="preserve"
   xmlns:inkscape="http://www.inkscape.org/namespaces/inkscape"
   xmlns:sodipodi="http://sodipodi.sourceforge.net/DTD/sodipodi-0.dtd"
   xmlns="http://www.w3.org/2000/svg"
   xmlns:svg="http://www.w3.org/2000/svg"><sodipodi:namedview
     id="namedview1"
     pagecolor="#ffffff"
     bordercolor="#cccccc"
     borderopacity="1"
     inkscape:showpageshadow="0"
     inkscape:pageopacity="1"
     inkscape:pagecheckerboard="0"
     inkscape:deskcolor="#d1d1d1"
     inkscape:document-units="mm" /><defs
     id="defs1" /><g
     inkscape:label="Layer 1"
     inkscape:groupmode="layer"
     id="layer1"
     transform="translate(-246.93854,-82.245672)"><path
       style="fill:#000000;stroke-width:5.29167"
       d="m 316.21411,82.245673 5.85967,14.297604 -42.30684,17.813413 c 0,0 -15.70393,7.85196 -16.99305,25.54818 -1.28913,17.69621 12.30531,27.54047 12.30531,27.54047 l 75.82418,75.00382 -0.1172,-75.12102 15.82112,0.23439 v 93.63759 l -7.38319,7.50038 -95.1611,-0.11719 v -15.00077 h 75.82418 l -82.21122,-82.21122 c 0,0 -13.41865,-14.3562 -10.25443,-33.81032 3.16422,-19.45412 11.01619,-25.78257 11.01619,-25.78257 0,0 1.99229,-3.98458 13.12567,-10.7818 11.13338,-6.797223 0,0.11719 0,0.11719 z"
       id="path1" /></g></svg>
